<svg width="9" height="9" viewBox="0 0 9 9" fill="none" xmlns="http://www.w3.org/2000/svg">
<path d="M4.21206 0.984656C4.2962 0.696925 4.7038 0.696926 4.78794 0.984657L5.44721 3.23912C5.48461 3.36702 5.60189 3.45492 5.73515 3.45492H7.93053C8.21345 3.45492 8.33911 3.81063 8.11897 3.98835L6.29036 5.46452C6.19612 5.54061 6.15687 5.6659 6.19086 5.78216L6.87624 8.12589C6.95872 8.40794 6.62851 8.62811 6.39985 8.44352L4.68844 7.06195C4.57849 6.97319 4.42151 6.97319 4.31156 7.06195L2.60015 8.44352C2.37149 8.62811 2.04128 8.40794 2.12376 8.12589L2.80914 5.78216C2.84313 5.6659 2.80388 5.54061 2.70964 5.46452L0.88103 3.98835C0.66089 3.81063 0.786551 3.45492 1.06947 3.45492H3.26485C3.39811 3.45492 3.51539 3.36702 3.55279 3.23912L4.21206 0.984656Z" fill="#343C58"/>
</svg>
