<svg width="94" height="103" viewBox="0 0 94 103" fill="none" xmlns="http://www.w3.org/2000/svg">
<path d="M48.4025 88.7931C66.0566 88.7931 80.368 74.4816 80.368 56.8276C80.368 39.1735 66.0566 24.8621 48.4025 24.8621C30.7485 24.8621 16.437 39.1735 16.437 56.8276C16.437 74.4816 30.7485 88.7931 48.4025 88.7931Z" fill="#2F2E41"/>
<path d="M43.963 81.6896H34.1958V99.4483H43.963V81.6896Z" fill="#2F2E41"/>
<path d="M63.4975 81.6896H53.7302V99.4483H63.4975V81.6896Z" fill="#2F2E41"/>
<path d="M42.1872 103C46.6007 103 50.1786 101.609 50.1786 99.8922C50.1786 98.1759 46.6007 96.7845 42.1872 96.7845C37.7737 96.7845 34.1958 98.1759 34.1958 99.8922C34.1958 101.609 37.7737 103 42.1872 103Z" fill="#2F2E41"/>
<path d="M61.7216 102.112C66.1351 102.112 69.713 100.721 69.713 99.0043C69.713 97.2879 66.1351 95.8965 61.7216 95.8965C57.3081 95.8965 53.7302 97.2879 53.7302 99.0043C53.7302 100.721 57.3081 102.112 61.7216 102.112Z" fill="#2F2E41"/>
<path d="M49.7346 59.4914C55.8645 59.4914 60.8338 54.5221 60.8338 48.3922C60.8338 42.2623 55.8645 37.2931 49.7346 37.2931C43.6048 37.2931 38.6355 42.2623 38.6355 48.3922C38.6355 54.5221 43.6048 59.4914 49.7346 59.4914Z" fill="white"/>
<path d="M49.7345 51.5C51.9412 51.5 53.7301 50.1086 53.7301 48.3922C53.7301 46.6759 51.9412 45.2845 49.7345 45.2845C47.5277 45.2845 45.7388 46.6759 45.7388 48.3922C45.7388 50.1086 47.5277 51.5 49.7345 51.5Z" fill="#3F3D56"/>
<path d="M17.7967 26.472C15.22 15.0199 23.4567 3.44803 36.1938 0.625504C48.931 -2.19702 61.3453 4.79865 63.922 16.2508C66.4987 27.7029 58.0573 31.9266 45.3202 34.7492C32.583 37.5717 20.3734 37.9242 17.7967 26.472Z" fill="#6C63FF"/>
<path d="M79.0496 50.1676C87.2186 46.6712 92.9511 41.7579 91.8535 39.1934C90.7559 36.6289 83.2438 37.3843 75.0748 40.8807C66.9057 44.377 61.1732 49.2904 62.2709 51.8549C63.3685 54.4194 70.8806 53.664 79.0496 50.1676Z" fill="#2F2E41"/>
<path d="M18.7662 71.7556C26.9352 68.2593 32.6677 63.3459 31.5701 60.7814C30.4725 58.2169 22.9604 58.9724 14.7913 62.4687C6.62231 65.9651 0.889798 70.8784 1.98742 73.443C3.08504 76.0075 10.5971 75.252 18.7662 71.7556Z" fill="#2F2E41"/>
<path d="M67.9372 66.1483C67.9372 69.2834 59.6184 75.4741 50.3875 75.4741C41.1566 75.4741 32.4199 69.6889 32.4199 66.5538C32.4199 63.4187 41.1566 64.121 50.3875 64.121C59.6184 64.121 67.9372 63.0132 67.9372 66.1483Z" fill="white"/>
</svg>

