<svg width="47" height="47" viewBox="0 0 47 47" fill="none" xmlns="http://www.w3.org/2000/svg">
<path fill-rule="evenodd" clip-rule="evenodd" d="M23.5 47C36.4787 47 47 36.4787 47 23.5C47 10.5213 36.4787 0 23.5 0C10.5213 0 0 10.5213 0 23.5C0 36.4787 10.5213 47 23.5 47Z" fill="#FF6660"/>
<path fill-rule="evenodd" clip-rule="evenodd" d="M17.196 31.7358C16.6225 32.3094 15.6925 32.3094 15.1189 31.7358C14.5453 31.1622 14.5453 30.2323 15.1189 29.6587L21.3503 23.4273L15.1189 17.1959C14.5453 16.6223 14.5453 15.6924 15.1189 15.1188C15.6925 14.5452 16.6225 14.5452 17.196 15.1188L23.4274 21.3502L29.6588 15.1188C30.2324 14.5452 31.1623 14.5452 31.7359 15.1188C32.3095 15.6924 32.3095 16.6223 31.7359 17.1959L25.5045 23.4273L31.7359 29.6587C32.3095 30.2323 32.3095 31.1622 31.7359 31.7358C31.1623 32.3094 30.2324 32.3094 29.6588 31.7358L23.4274 25.5044L17.196 31.7358Z" fill="white"/>
</svg>

